<?xml version="1.0" standalone="no"?>
<!DOCTYPE svg PUBLIC "-//W3C//DTD SVG 20010904//EN"
 "http://www.w3.org/TR/2001/REC-SVG-20010904/DTD/svg10.dtd">
<svg version="1.0" xmlns="http://www.w3.org/2000/svg"
 width="187.000000pt" height="187.000000pt" viewBox="0 0 187.000000 187.000000"
 preserveAspectRatio="xMidYMid meet">
<metadata>
Created by potrace 1.16, written by Peter Selinger 2001-2019
</metadata>
<g transform="translate(0.000000,187.000000) scale(0.100000,-0.100000)"
fill="#000000" stroke="none">
<path d="M1098 1581 c-219 -115 -425 -237 -460 -272 -42 -41 -39 -100 6 -145
54 -54 90 -49 252 35 166 86 192 95 230 81 16 -6 124 -105 239 -220 249 -246
237 -240 395 -212 l105 19 3 292 2 291 -22 -4 c-13 -3 -68 -15 -123 -27 -55
-13 -124 -24 -152 -27 l-52 -4 -122 102 c-118 99 -168 130 -208 130 -10 0 -52
-17 -93 -39z"/>
<path d="M615 1591 c-61 -22 -137 -60 -228 -114 -89 -52 -134 -53 -271 -3 -54
20 -102 36 -107 36 -5 0 -8 -139 -7 -331 l3 -332 49 -14 c26 -8 49 -13 50 -11
42 69 63 92 103 110 45 20 113 26 155 13 41 -13 86 -54 99 -90 9 -23 22 -38
36 -41 26 -7 93 -77 93 -99 0 -8 17 -23 38 -34 44 -22 64 -44 81 -88 7 -18 24
-36 41 -43 57 -24 100 -94 100 -164 0 -36 47 -92 85 -102 40 -10 78 9 98 48
22 45 12 76 -46 138 -23 24 -31 36 -17 25 13 -11 39 -36 58 -57 19 -20 47 -42
63 -48 60 -25 119 16 119 84 0 37 -6 46 -77 114 -74 71 -53 56 65 -46 66 -57
111 -62 148 -18 39 45 33 87 -23 149 -93 103 -97 110 -16 34 86 -80 110 -90
156 -65 34 17 46 39 47 80 0 36 -11 48 -205 243 -133 132 -214 206 -228 207
-52 3 -85 -7 -199 -58 -136 -61 -179 -67 -243 -31 -60 34 -85 78 -85 151 0
102 20 122 239 247 l93 53 -30 27 c-56 50 -149 62 -237 30z"/>
<path d="M220 854 c-42 -35 -60 -74 -60 -127 0 -59 32 -91 88 -85 l39 3 -5
-42 c-4 -35 0 -46 23 -68 22 -23 33 -27 64 -22 l38 5 -4 -42 c-4 -34 -1 -45
21 -65 21 -20 32 -23 71 -19 38 5 45 3 41 -9 -24 -63 1 -118 58 -128 103 -20
206 79 176 169 -15 45 -41 67 -84 69 -32 2 -36 5 -36 30 0 57 -44 106 -95 107
-28 0 -30 3 -32 38 -2 42 -37 79 -83 89 -22 4 -29 12 -34 38 -16 82 -119 115
-186 59z"/>
</g>
</svg>
